<svg width="38" height="38" viewBox="0 0 38 38" fill="none" xmlns="http://www.w3.org/2000/svg">
<path d="M19 6.33331C20.6797 6.33331 22.2906 7.00057 23.4783 8.1883C24.6661 9.37603 25.3333 10.9869 25.3333 12.6666C25.3333 14.3464 24.6661 15.9573 23.4783 17.145C22.2906 18.3327 20.6797 19 19 19C17.3203 19 15.7094 18.3327 14.5216 17.145C13.3339 15.9573 12.6666 14.3464 12.6666 12.6666C12.6666 10.9869 13.3339 9.37603 14.5216 8.1883C15.7094 7.00057 17.3203 6.33331 19 6.33331V6.33331ZM19 22.1666C25.9983 22.1666 31.6666 25.0008 31.6666 28.5V31.6666H6.33331V28.5C6.33331 25.0008 12.0016 22.1666 19 22.1666Z" fill="black"/>
</svg>
