<svg width="38" height="38" viewBox="0 0 38 38" fill="none" xmlns="http://www.w3.org/2000/svg">
<path opacity="0.4" d="M34.8332 25.2387C34.8332 29.6562 31.2865 33.2345 26.869 33.2503H26.8532H11.1623C6.76067 33.2503 3.1665 29.6878 3.1665 25.2703V25.2545C3.1665 25.2545 3.176 18.2467 3.18867 14.7222C3.19025 14.0603 3.95025 13.6898 4.468 14.1015C8.23 17.0861 14.9576 22.528 15.0415 22.5992C16.1657 23.5002 17.5907 24.0084 19.0473 24.0084C20.504 24.0084 21.929 23.5002 23.0532 22.5818C23.1371 22.5264 29.7143 17.2476 33.5333 14.2139C34.0526 13.8007 34.8158 14.1712 34.8173 14.8314C34.8332 18.329 34.8332 25.2387 34.8332 25.2387Z" fill="black"/>
<path d="M34.0036 8.98322C32.6325 6.39922 29.9345 4.74939 26.9641 4.74939H11.1625C8.19214 4.74939 5.49415 6.39922 4.12298 8.98322C3.81581 9.56114 3.96148 10.2816 4.4729 10.6901L16.2291 20.0935C17.0525 20.7585 18.05 21.0894 19.0475 21.0894C19.0538 21.0894 19.0586 21.0894 19.0633 21.0894C19.0681 21.0894 19.0744 21.0894 19.0791 21.0894C20.0766 21.0894 21.0741 20.7585 21.8975 20.0935L33.6537 10.6901C34.1651 10.2816 34.3108 9.56114 34.0036 8.98322Z" fill="black"/>
</svg>
